<?xml version="1.0" encoding="UTF-8"?>
<!DOCTYPE svg PUBLIC "-//W3C//DTD SVG 1.1//EN" "http://www.w3.org/Graphics/SVG/1.1/DTD/svg11.dtd">
<svg xmlns="http://www.w3.org/2000/svg" version="1.1" width="677px" height="186px" style="shape-rendering:geometricPrecision; text-rendering:geometricPrecision; image-rendering:optimizeQuality; fill-rule:evenodd; clip-rule:evenodd" xmlns:xlink="http://www.w3.org/1999/xlink">
<g><path style="opacity:0.936" fill="#001846" d="M 508.5,16.5 C 513.5,16.5 518.5,16.5 523.5,16.5C 523.333,39.1691 523.5,61.8358 524,84.5C 536.167,73.6667 548.333,62.8333 560.5,52C 567.5,51.3333 574.5,51.3333 581.5,52C 568.325,63.6771 555.325,75.5105 542.5,87.5C 555.645,103.812 568.978,119.979 582.5,136C 575.833,136.667 569.167,136.667 562.5,136C 551.622,123.457 541.122,110.624 531,97.5C 528.961,99.8745 526.628,101.874 524,103.5C 523.5,114.495 523.333,125.495 523.5,136.5C 518.5,136.5 513.5,136.5 508.5,136.5C 508.5,96.5 508.5,56.5 508.5,16.5 Z"/></g>
<g><path style="opacity:0.942" fill="#001846" d="M 354.5,22.5 C 359.5,22.5 364.5,22.5 369.5,22.5C 369.5,32.1667 369.5,41.8333 369.5,51.5C 379.5,51.5 389.5,51.5 399.5,51.5C 399.5,55.8333 399.5,60.1667 399.5,64.5C 389.5,64.5 379.5,64.5 369.5,64.5C 369.333,81.17 369.5,97.8367 370,114.5C 371.338,121.674 375.671,125.007 383,124.5C 388.532,124.434 393.532,122.767 398,119.5C 399.97,123.273 401.803,127.106 403.5,131C 401.79,133.372 399.456,135.038 396.5,136C 386.819,139.293 377.153,139.293 367.5,136C 360.438,131.382 356.272,124.882 355,116.5C 354.5,99.1699 354.333,81.8365 354.5,64.5C 349.5,64.5 344.5,64.5 339.5,64.5C 339.5,60.1667 339.5,55.8333 339.5,51.5C 344.5,51.5 349.5,51.5 354.5,51.5C 354.5,41.8333 354.5,32.1667 354.5,22.5 Z"/></g>
<g><path style="opacity:0.942" fill="#001846" d="M 222.5,49.5 C 255.984,49.9884 271.317,66.9884 268.5,100.5C 246.167,100.5 223.833,100.5 201.5,100.5C 203.387,112.888 210.387,120.721 222.5,124C 236.112,125.972 248.612,123.138 260,115.5C 263.626,118.752 265.626,122.752 266,127.5C 252.294,136.928 237.128,140.428 220.5,138C 200.584,134.417 189.084,122.583 186,102.5C 182.833,73.8909 195,56.2242 222.5,49.5 Z M 222.5,63.5 C 239.571,62.1931 249.904,69.8598 253.5,86.5C 236.179,87.4995 218.846,87.8328 201.5,87.5C 203.605,75.0703 210.605,67.0703 222.5,63.5 Z"/></g>
<g><path style="opacity:0.936" fill="#001846" d="M 317.5,49.5 C 323.203,49.3748 328.87,49.7081 334.5,50.5C 334.084,55.4932 333.751,60.4932 333.5,65.5C 317.009,60.9959 306.509,66.9959 302,83.5C 301.5,101.164 301.333,118.83 301.5,136.5C 296.5,136.5 291.5,136.5 286.5,136.5C 286.5,108.167 286.5,79.8333 286.5,51.5C 291.167,51.5 295.833,51.5 300.5,51.5C 300.335,54.8499 300.502,58.1832 301,61.5C 304.892,55.151 310.392,51.151 317.5,49.5 Z"/></g>
<g><path style="opacity:0.936" fill="#001846" d="M 414.5,51.5 C 419.5,51.5 424.5,51.5 429.5,51.5C 429.333,70.8362 429.5,90.1695 430,109.5C 434.288,122.233 443.121,127.067 456.5,124C 463.667,122.167 468.167,117.667 470,110.5C 471.451,90.8878 471.951,71.2211 471.5,51.5C 476.5,51.5 481.5,51.5 486.5,51.5C 486.667,70.5029 486.5,89.5029 486,108.5C 482.522,128.64 470.522,138.64 450,138.5C 431.399,139.044 419.733,130.377 415,112.5C 414.5,92.1694 414.333,71.8361 414.5,51.5 Z"/></g>
<g><path style="opacity:0.912" fill="#001846" d="M 69.5,52.5 C 70.8048,54.3972 71.4714,56.7305 71.5,59.5C 71.4728,62.0895 71.1394,64.5895 70.5,67C 53.6795,74.9105 37.0129,83.0771 20.5,91.5C 37.0129,99.9229 53.6795,108.09 70.5,116C 71.4692,120.737 71.8025,125.57 71.5,130.5C 49.0779,120.123 26.7445,109.457 4.5,98.5C 3.19986,93.9497 3.19986,89.4497 4.5,85C 26.2585,74.1207 47.9252,63.2874 69.5,52.5 Z"/></g>
<g><path style="opacity:0.931" fill="#2baebe" d="M 96.5,52.5 C 111.837,52.3334 127.17,52.5001 142.5,53C 158.316,55.1485 168.15,63.9819 172,79.5C 175.719,103.609 165.886,118.443 142.5,124C 132.839,124.5 123.172,124.666 113.5,124.5C 113.5,128.833 113.5,133.167 113.5,137.5C 107.833,137.5 102.167,137.5 96.5,137.5C 96.3339,131.824 96.5006,126.157 97,120.5C 98.6132,114.553 102.447,111.053 108.5,110C 120.57,109.938 132.57,109.272 144.5,108C 155.53,101.923 159.364,92.756 156,80.5C 154.167,74.6667 150.333,70.8333 144.5,69C 128.571,67.5456 112.571,67.0456 96.5,67.5C 96.5,62.5 96.5,57.5 96.5,52.5 Z"/></g>
<g><path style="opacity:0.913" fill="#001846" d="M 606.5,54.5 C 627.937,65.3861 649.271,76.5528 670.5,88C 672.691,91.2298 673.024,94.7298 671.5,98.5C 650.21,110.644 628.543,121.977 606.5,132.5C 606.197,127.57 606.531,122.737 607.5,118C 622.992,110.088 638.325,101.921 653.5,93.5C 638.416,85.0968 623.082,77.0968 607.5,69.5C 606.506,64.544 606.173,59.544 606.5,54.5 Z"/></g>
<g><path style="opacity:0.941" fill="#2baebe" d="M 97.5,152.5 C 102.833,152.5 108.167,152.5 113.5,152.5C 113.5,156.833 113.5,161.167 113.5,165.5C 108.156,165.666 102.823,165.499 97.5,165C 96.1968,160.834 96.1968,156.667 97.5,152.5 Z"/></g>
</svg>
